<?xml version="1.0" encoding="utf-8"?>
<svg fill="#000000" width="800px" height="800px" viewBox="1.998 1.998 20.004 20.005" id="money-dollar-coin" data-name="Flat Color" class="icon flat-color" xmlns="http://www.w3.org/2000/svg">
  <circle id="primary" cx="12" cy="12" r="10" style="fill: rgb(52, 28, 88);"/>
  <circle id="circle-1" cx="11.995" cy="11.637" r="10" style="fill: rgb(255, 255, 255);" transform="matrix(0.815713, 0, 0, 0.816906, 2.215791, 2.493705)"/>
  <path id="secondary" d="M12.5,11h-1a.5.5,0,0,1,0-1H14a1,1,0,0,0,0-2H13a1,1,0,0,0-2,0v.05A2.5,2.5,0,0,0,11.5,13h1a.5.5,0,0,1,0,1H10a1,1,0,0,0,0,2h1a1,1,0,0,0,2,0V16A2.5,2.5,0,0,0,12.5,11Z" style="fill: rgb(94, 66, 136);"/>
</svg>