<?xml version="1.0" encoding="utf-8"?>
<svg height="800px" width="800px" version="1.1" id="Layer_1" viewBox="0 0 359.585 359.585" xmlns="http://www.w3.org/2000/svg">
  <g transform="matrix(0.280711, 0, 0, 0.2936, 32.062393, 86.915863)" style="">
    <path style="stroke: rgb(0, 0, 0); fill: rgb(255, 255, 255);" d="M 358.253 695.654 L 456.682 577.853 C 456.682 577.853 412.18 417.644 412.703 416.597 C 413.226 415.55 426.839 317.644 426.839 317.644 L 487.048 220.262 L 463.488 141.204 L 548.828 123.927 L 647.781 164.765 C 647.781 164.765 587.572 195.655 588.095 195.655 C 588.618 195.655 598.567 250.105 598.567 250.105 L 626.315 330.733 L 596.472 415.026 L 520.556 516.596 L 495.425 533.874 L 482.86 714.502 L 359.824 703.507 L 358.253 695.654 Z"/>
  </g>
  <g transform="matrix(0.280711, 0, 0, 0.2936, 191.199112, 195.817764)" style="">
    <path style="stroke: none; stroke-width: 1; stroke-dasharray: none; stroke-linecap: butt; stroke-dashoffset: 0; stroke-linejoin: miter; stroke-miterlimit: 4; fill-rule: nonzero; opacity: 1; fill: rgb(52, 28, 88); paint-order: stroke markers;" vector-effect="non-scaling-stroke" d="M 589.95 152 C 587.883 153.22 586.15 153.887 584.75 154 C 564.723 155.653 544.807 158.167 525 161.54 C 524.833 161.507 524.737 161.577 524.71 161.75 C 512.777 163.643 500.353 167.123 487.44 172.19 C 481.24 174.617 476.18 178.123 472.26 182.71 C 470.04 185.317 468.747 187.96 468.38 190.64 C 467.967 193.653 468.403 196.71 469.69 199.81 C 472.983 207.77 475.753 214.097 478 218.79 C 478.833 221.77 480.07 224.59 481.71 227.25 L 491.96 251 C 507.34 287.033 508.873 323.72 496.56 361.06 C 495.947 362.927 494.497 367.073 492.21 373.5 C 491.697 374.16 491.39 374.91 491.29 375.75 C 482.563 395.903 457.237 435.637 453.59 440.91 C 451.229 444.337 437.095 463.798 436.312 464.669 C 436.094 464.912 436.288 464.677 436.006 464.975 C 434.443 466.632 418.14 484.956 414.698 488.119 C 413.379 489.33 405.946 496.649 404.706 497.703 C 401.727 500.234 387.193 511.224 377.658 517.788 C 377.169 523.329 376.617 529.542 376.511 531.241 C 376.311 532.891 369.11 611.527 368.21 627.5 C 366.123 651.14 365.74 674.807 367.06 698.5 C 367.14 700 367.133 701.5 367.04 703 C 365.58 707.44 362.943 709.833 359.13 710.18 C 357.497 710.327 354.497 709.643 350.13 708.13 C 340.51 704.797 329.717 702.503 317.75 701.25 C 293.31 698.69 270.89 697.883 250.49 698.83 C 239.217 699.35 228.053 700.743 217 703.01 C 213.387 703.75 210.447 703.12 208.18 701.12 C 206.087 699.267 205.037 696.933 205.03 694.12 C 205.03 691.12 206.5 688.643 209.44 686.69 C 211.36 685.41 255.55 644.65 270.19 627.69 C 280.217 616.07 293.96 598.75 293.96 598.75 C 293.96 598.75 310.277 577.183 314.43 570.85 C 314.654 570.511 314.733 570.097 314.65 569.7 C 310.763 551.46 306.547 533.547 302 515.96 L 300.04 509.25 C 298.88 503.103 298.033 498.937 297.5 496.75 C 290.64 468.683 285.89 442.517 283.25 418.25 C 281.083 398.283 280.583 379.283 281.75 361.25 C 283.043 341.303 286.807 321.053 293.04 300.5 C 293.04 300.5 297.497 287.78 299.75 282 C 299.777 281.932 299.801 281.86 299.824 281.785 C 300.265 281.427 302.47 275.463 302.49 275.41 C 314.91 247.77 330.937 222.493 350.57 199.58 C 350.693 199.432 350.75 199.24 350.727 199.049 C 350.705 198.858 350.604 198.685 350.45 198.57 C 334.223 186.77 316.573 177.747 297.5 171.5 C 292.113 169.733 287.963 168.273 285.05 167.12 C 283.39 166.467 282.15 165.513 281.33 164.26 C 278.437 159.82 279.173 155.567 283.54 151.5 L 285 150.04 C 294.947 140.353 305.663 131.73 317.15 124.17 C 317.318 124.058 317.432 123.882 317.464 123.684 C 317.497 123.486 317.444 123.285 317.32 123.13 C 304.247 106.323 290.723 90.35 276.75 75.21 L 276.71 75 C 275.517 73.54 274.32 72.083 273.12 70.63 C 271.533 68.697 270.567 67.097 270.22 65.83 C 269.713 63.97 269.817 62.15 270.53 60.37 C 271.19 58.723 272.263 57.36 273.75 56.28 C 275.77 54.813 277.937 54.387 280.25 55 C 282.437 55.573 284.527 56.393 286.52 57.46 C 304.62 67.087 323.943 72.253 344.49 72.96 C 350.763 73.18 355.517 73.277 358.75 73.25 C 371.043 73.15 383.293 73.83 395.5 75.29 L 403 77.21 C 405.735 78.055 409.662 79.376 414.78 81.174 C 416.416 82.081 420.612 84.061 421.005 84.251 C 421.756 84.698 449.403 103.33 458.69 112.81 C 458.955 113.081 466.269 117.977 469.238 119.398 C 472.639 121.026 477.059 123.007 480.784 124.346 C 483.13 125.19 486.087 125.847 488.315 126.446 C 520.94 129.802 553.565 133.174 586.19 136.56 C 588.53 136.807 590.48 138.287 592.04 141 C 592.773 143.66 591.876 149.876 591.749 150.137 C 591.589 150.467 590.172 151.869 589.95 152 Z M 430.81 442.06 C 438.466 429.643 445.395 416.044 447.698 409.045 C 449.909 402.323 451.037 396.911 452.49 390.904 C 453.939 385.2 453.717 379.762 454.537 373.955 C 459.303 349.587 459.89 325.087 456.21 300.5 C 456.21 300.5 453.357 287.403 451.25 281.71 C 450.89 279.51 450.153 277.44 449.04 275.5 C 438.133 248.987 419.7 229.65 393.74 217.49 C 393.42 217.343 393.363 217.413 393.57 217.7 C 405.703 234.233 414.27 252.463 419.27 272.39 C 423.75 290.243 425.66 309.697 425 330.75 C 424.44 348.577 422.043 367.347 417.81 387.06 C 413.397 407.62 407.287 427.993 399.48 448.18 C 399.46 448.231 382.46 487 382.46 487 L 379.231 493.726 C 379.228 493.801 379.209 494.124 379.179 494.634 C 386.051 489.835 392.363 485.255 393.593 484.347 C 408.721 473.179 422.74 453.581 423.16 453.148 C 424.053 452.228 430.489 442.581 430.81 442.06 Z M 316.96 597.5 C 316.96 597.5 299.653 619.903 299.54 620.25 C 282.033 641.823 263.397 661.957 243.63 680.65 C 242.977 681.27 243.1 681.567 244 681.54 L 271.75 680.71 C 288.963 680.797 306.107 681.873 323.18 683.94 C 326.807 684.38 330.983 685.097 335.71 686.09 C 339.863 686.97 344.027 687.803 348.2 688.59 C 348.319 688.614 348.443 688.583 348.536 688.505 C 348.63 688.428 348.682 688.312 348.68 688.19 C 347.913 654.977 349.663 621.903 353.93 588.97 C 354.877 581.62 355.527 576.863 355.88 574.697 C 356.171 572.216 359.896 534.411 360.056 530.966 C 346.88 553.907 332.514 576.085 316.96 597.5 Z M 490.686 143.337 C 489.813 143.06 432.937 123.053 424.31 121.22 C 408.123 117.773 353.87 124.977 344.27 129.35 C 344.155 129.404 344.067 129.504 344.029 129.624 C 343.991 129.744 344.006 129.873 344.07 129.98 C 344.07 129.98 368.187 176.31 372 188.75 C 372.273 189.643 372.773 190.157 373.5 190.29 L 394.25 197.54 L 406.75 203.71 C 423.27 212.523 436.833 223.723 447.44 237.31 C 461.14 254.863 469.853 275.27 473.58 298.53 C 476.527 316.937 476.75 335.76 474.25 355 C 473.137 363.6 471.983 370.787 470.79 376.56 C 470.763 376.7 470.763 376.83 470.79 376.95 C 470.91 377.43 471.09 377.387 471.33 376.82 C 474.483 369.453 477.267 361.96 479.68 354.34 C 481.887 347.353 483.48 340.89 484.46 334.95 C 487.653 315.59 486.763 296.273 481.79 277 C 479.87 269.02 477.42 261.54 474.44 254.56 C 471.28 247.187 464.727 232.317 454.78 209.95 C 452.807 205.51 451.4 201.59 450.56 198.19 C 449.787 195.023 449.58 191.747 449.94 188.36 C 450.273 185.2 451.163 182.093 452.61 179.04 C 455.203 173.567 459.007 168.973 464.02 165.26 C 468.573 161.9 473.4 158.993 478.5 156.54 C 488.52 152.48 498.533 149.193 508.54 146.68 C 509.84 146.353 509.823 146.133 508.49 146.02 C 505.329 145.753 498.393 145.02 498.229 144.998 C 497.453 144.744 491.858 143.708 490.686 143.337 Z M 416.08 100.95 C 407.093 96.13 397.64 93.06 387.72 91.74 C 384.467 91.307 377.807 91.097 367.74 91.11 C 355.153 91.137 343.573 90.683 333 89.75 C 326.6 89.19 319.253 87.873 310.96 85.8 C 310.8 85.76 310.663 85.76 310.55 85.8 C 310.39 85.853 310.267 85.933 310.18 86.04 C 310.017 86.234 310.08 86.592 310.33 86.88 C 317.963 95.74 325.33 104.893 332.43 114.34 C 332.853 114.904 333.616 115.089 334.25 114.78 C 344.577 109.713 355.157 105.937 365.99 103.45 C 372.223 102.023 378.82 101.107 385.78 100.7 C 395.92 100.113 405.947 100.42 415.86 101.62 C 417.127 101.773 417.2 101.55 416.08 100.95 Z M 306.48 156.33 C 320.607 161.397 334.14 167.77 347.08 175.45 C 348.307 176.177 348.637 175.887 348.07 174.58 C 342.783 162.407 336.373 150.603 328.84 139.17 C 328.449 138.575 327.653 138.402 327.05 138.78 C 319.89 143.32 312.937 148.693 306.19 154.9 C 305.971 155.1 305.874 155.4 305.933 155.692 C 305.992 155.984 306.199 156.225 306.48 156.33 Z M 350.51 228.99 C 334.263 250.423 312.38 299.843 312.54 300.25 C 304.153 323.99 299.608 375.161 299.582 375.467 C 299.572 375.583 299.569 375.634 299.574 375.691 C 299.565 375.729 299.56 375.769 299.56 375.81 C 299.28 398.257 300.76 419.57 304 439.75 C 308.213 465.957 323.593 530.203 323.94 531.83 C 324.267 533.37 324.607 533.373 324.96 531.84 L 331.29 504.25 C 339.357 471.577 346.42 438.69 352.48 405.59 C 357.373 378.89 361.113 352.027 363.7 325 C 365.313 308.207 366.15 291.373 366.21 274.5 C 366.257 260.173 365.283 245.923 363.29 231.75 L 360.81 216.42 C 360.717 215.867 360.497 215.817 360.15 216.27 C 356.983 220.437 353.77 224.677 350.51 228.99 Z M 382.29 240.25 C 384.103 260.643 384.423 281.06 383.25 301.5 C 381.517 331.787 378.017 361.87 372.75 391.75 C 366.15 429.157 359.97 459.99 354.21 484.25 C 352.937 487.37 352.187 490.62 351.96 494 L 346.83 517.39 C 346.47 519.023 346.697 519.11 347.51 517.65 C 357.623 499.477 366.717 480.843 374.79 461.75 C 376.83 457.63 378.553 453.38 379.96 449 C 394.62 414.093 403.553 377.76 406.76 340 C 407.887 326.7 407.633 313.437 406 300.21 L 405.96 299.5 C 403.487 274.767 395.477 252.033 381.93 231.3 C 381.29 230.327 381.043 230.423 381.19 231.59 L 382.29 240.25 Z" stroke-linecap="round" transform=" translate(-439.86, -355.12)"/>
  </g>
  <g transform="matrix(0.280711, 0, 0, 0.2936, 169.823151, 121.017456)" style="">
    <path style="stroke: none; stroke-width: 1; stroke-dasharray: none; stroke-linecap: butt; stroke-dashoffset: 0; stroke-linejoin: miter; stroke-miterlimit: 4; fill: rgb(234,51,35); fill-rule: nonzero; opacity: 1;" vector-effect="non-scaling-stroke" transform=" translate(-363.7, -100.34)" d="M 416.08 100.95 Q 417.76 101.85 415.86 101.62 Q 400.99 99.82 385.78 100.7 Q 375.34 101.31 365.99 103.45 Q 349.74 107.18 334.25 114.78 C 333.6163035685799 115.08864629226036 332.85271663680226 114.90404285820424 332.43 114.34 Q 321.78 100.17 310.33 86.88 C 310.080416375622 86.59168373981987 310.01657747451634 86.23418589362794 310.18 86.04 Q 310.31 85.88 310.55 85.8 Q 310.72 85.74 310.96 85.8 Q 323.4 88.91 333 89.75 Q 348.86 91.15 367.74 91.11 Q 382.84 91.09 387.72 91.74 Q 402.6 93.72 416.08 100.95 Z" stroke-linecap="round"/>
  </g>
  <g transform="matrix(0.280711, 0, 0, 0.2936, 186.67128, 150.239365)" style="">
    <path style="stroke: none; stroke-width: 1; stroke-dasharray: none; stroke-linecap: butt; stroke-dashoffset: 0; stroke-linejoin: miter; stroke-miterlimit: 4; fill: rgb(204,204,204); fill-rule: nonzero; opacity: 1;" vector-effect="non-scaling-stroke" transform=" translate(-423.72, -199.87)" d="M 372.06 145.06 C 372.103 145.048 398.807 136.88 409.96 135.5 C 407.033 140.787 407.213 145.333 410.5 149.14 C 412.253 151.167 414.367 152.493 416.84 153.12 C 419.607 153.82 422.243 153.447 424.75 152 C 430.883 148.46 432.383 143.223 429.25 136.29 C 435.804 137.236 442.05 138.825 447.985 141.053 C 448.024 141.075 468.348 151.698 470.183 152.131 L 478.5 156.54 C 473.4 158.993 468.573 161.9 464.02 165.26 C 459.007 168.973 455.203 173.567 452.61 179.04 C 451.163 182.093 450.273 185.2 449.94 188.36 C 449.58 191.747 449.787 195.023 450.56 198.19 C 451.4 201.59 452.807 205.51 454.78 209.95 C 464.727 232.317 471.28 247.187 474.44 254.56 C 477.38 261.445 479.803 268.817 481.711 276.675 C 481.473 276.553 451.711 229.073 451.53 228.861 C 450.806 228.013 445.241 223.653 444.396 223.131 C 444.349 223.089 444.297 223.045 444.24 223 C 433.413 214.44 407.11 202.977 406.75 203.71 L 394.25 197.54 C 394.683 197.147 384.148 168.993 377.421 156.889 C 377.368 156.578 371.881 147.814 371.69 147.56 C 370.697 146.253 370.82 145.42 372.06 145.06 Z" stroke-linecap="round"/>
  </g>
  <g transform="matrix(0.280711, 0, 0, 0.2936, 185.500687, 133.210632)" style="">
    <path style="stroke: none; stroke-width: 1; stroke-dasharray: none; stroke-linecap: butt; stroke-dashoffset: 0; stroke-linejoin: miter; stroke-miterlimit: 4; fill: rgb(52,28,88); fill-rule: nonzero; opacity: 1;" vector-effect="non-scaling-stroke" transform=" translate(-419.54, -141.87)" d="M 429.25 136.29 Q 433.95 146.69 424.75 152 Q 420.99 154.17 416.84 153.12 Q 413.13 152.18 410.5 149.14 Q 405.57 143.43 409.96 135.5 Q 414.66 129.17 422.25 131 Q 426.62 132.05 429.25 136.29 Z" stroke-linecap="round"/>
  </g>
  <g transform="matrix(0.280711, 0, 0, 0.2936, 159.596909, 137.761414)" style="">
    <path style="stroke: none; stroke-width: 1; stroke-dasharray: none; stroke-linecap: butt; stroke-dashoffset: 0; stroke-linejoin: miter; stroke-miterlimit: 4; fill: rgb(234,51,35); fill-rule: nonzero; opacity: 1;" vector-effect="non-scaling-stroke" transform=" translate(-327.27, -157.38)" d="M 306.48 156.33 C 306.1994346160471 156.22539921267483 305.99220712553694 155.9835573182442 305.9330070382468 155.6916396464342 C 305.87380695095663 155.39972197462416 305.9711683619192 155.09981044232018 306.19 154.9 Q 316.31 145.59 327.05 138.78 C 327.65348159581606 138.40181465518768 328.4485443501568 138.5750406184239 328.84 139.17 Q 340.14 156.32 348.07 174.58 Q 348.92 176.54 347.08 175.45 Q 327.67 163.93 306.48 156.33 Z" stroke-linecap="round"/>
  </g>
  <g transform="matrix(0.280711, 0, 0, 0.2936, 162.976608, 199.599319)" style="">
    <path style="stroke: none; stroke-width: 1; stroke-dasharray: none; stroke-linecap: butt; stroke-dashoffset: 0; stroke-linejoin: miter; stroke-miterlimit: 4; fill: rgb(204,204,204); fill-rule: nonzero; opacity: 1;" vector-effect="non-scaling-stroke" transform=" translate(-339.3, -368)" d="M 363.332 232.049 C 363.318 231.949 363.304 231.85 363.29 231.75 C 363.308 231.85 363.322 231.949 363.332 232.049 Z M 366.21 274.5 C 366.15 291.373 365.313 308.207 363.7 325 C 361.113 352.027 357.373 378.89 352.48 405.59 C 346.42 438.69 339.357 471.577 331.29 504.25 C 326.65 486.357 320.069 451.892 319.933 451.519 C 319.857 450.969 319.325 447.522 319.31 447.44 C 315.266 424.476 313.935 374.385 313.75 374.04 C 314.878 349.411 319.379 325.31 327.253 301.738 C 327.292 301.674 327.333 301.6 327.379 301.515 C 327.792 300.751 328.738 298.307 328.807 297.423 C 328.813 297.34 328.815 297.264 328.813 297.193 C 337.101 275.357 348.246 254.793 362.25 235.5 C 363.09 234.347 363.451 233.196 363.332 232.049 C 365.297 246.124 366.256 260.274 366.21 274.5 Z" stroke-linecap="round"/>
  </g>
  <g transform="matrix(0.280711, 0, 0, 0.2936, 174.404282, 198.096054)" style="">
    <path style="stroke: none; stroke-width: 1; stroke-dasharray: none; stroke-linecap: butt; stroke-dashoffset: 0; stroke-linejoin: miter; stroke-miterlimit: 4; fill: rgb(204,204,204); fill-rule: nonzero; opacity: 1;" vector-effect="non-scaling-stroke" transform=" translate(-380.03, -363.38)" d="M 382.451 241.943 C 382.503 241.999 386.163 247.123 386.45 247.77 C 393.543 263.923 397.917 280.817 399.57 298.45 C 399.573 298.484 400.089 302.385 400.154 302.701 C 401.427 325.95 399.665 349.183 394.87 372.4 C 394.845 372.518 394.082 377.115 394.05 377.26 C 389.957 396.053 384.663 414.5 378.17 432.6 C 377.748 433.777 370.579 452.271 370.48 452.721 C 365.842 463.934 354.084 484.878 354.21 484.25 C 359.97 459.99 366.15 429.157 372.75 391.75 C 378.017 361.87 381.517 331.787 383.25 301.5 C 384.391 281.621 384.119 261.764 382.436 241.93 C 382.44 241.933 382.445 241.937 382.451 241.943 Z" stroke-linecap="round"/>
  </g>
  <g transform="matrix(0.212552, 0, 0, 0.214904, 153.90332, 233.273087)" style="">
    <path style="stroke: none; stroke-width: 1; stroke-dasharray: none; stroke-linecap: butt; stroke-dashoffset: 0; stroke-linejoin: miter; stroke-miterlimit: 4; fill: rgb(204,204,204); fill-rule: nonzero; opacity: 1;" vector-effect="non-scaling-stroke" transform=" translate(-310.81, -626.38)" d="M 354.355 585.695 C 354.22 586.722 347.913 654.977 348.68 688.19 C 348.682 688.312 348.63 688.428 348.536 688.505 C 348.443 688.583 348.319 688.614 348.2 688.59 C 344.027 687.803 339.863 686.97 335.71 686.09 C 330.983 685.097 326.807 684.38 323.18 683.94 C 306.107 681.873 288.963 680.797 271.75 680.71 C 271.75 680.71 301.455 651.298 301.49 651.26 C 316.072 635.635 353.516 586.951 354.355 585.695 Z M 279.164 672.618 C 279.168 672.613 279.199 672.581 279.211 672.571 C 279.194 672.588 279.178 672.604 279.164 672.618 Z" stroke-linecap="round"/>
  </g>
  <g id="XMLID_450_">
    <path id="XMLID_451_" style="fill: rgb(52, 28, 88);" d="M78.057,301.043c-2.112,1.484-4.116,0.723-4.88,0.326 c-0.763-0.396-2.538-1.597-2.538-4.179v-67.712l60.513-67.74v-30.021l-76.15,85.246c-2.813,3.152-4.362,7.214-4.362,11.438v68.79 c0,9.259,5.104,17.661,13.32,21.928c3.602,1.871,7.508,2.795,11.399,2.795c4.986,0,9.946-1.519,14.2-4.509l8.424-5.922 l-11.502-16.361L78.057,301.043z"/>
    <path id="XMLID_452_" style="fill: rgb(52, 28, 88);" d="M304.581,216.959l-77.788-87.079v30.021l62.153,69.577v67.712 c0,2.582-1.775,3.782-2.538,4.179c-0.764,0.396-2.768,1.158-4.88-0.326l-8.424-5.922l-11.502,16.361l8.424,5.922 c4.254,2.991,9.214,4.509,14.2,4.509c3.891,0,7.798-0.924,11.399-2.795c8.216-4.267,13.32-12.669,13.32-21.928V228.4 C308.946,224.177,307.397,220.115,304.581,216.959z"/>
    <g id="XMLID_453_">
      <path id="XMLID_454_" style="fill: rgb(52, 28, 88);" d="M179.792,359.585l-5.389-3.446c-1.766-1.129-43.252-28.073-43.252-63.624 c0-35.138,20.494-63.748,46.657-65.135c0.726-0.038,1.352-0.066,1.983-0.066c3.57,0,7.134,0.513,10.593,1.523 c8.017,2.343,15.49,7.396,21.612,14.613c10.445,12.316,16.436,30.199,16.436,49.064c0,35.551-41.486,62.495-43.252,63.624 L179.792,359.585z M179.792,247.313c-0.278,0-0.555,0.02-0.831,0.034c-15.376,0.814-27.81,21.074-27.81,45.167 c0,17.21,17.486,34.339,28.641,42.936c11.154-8.597,28.641-25.726,28.641-42.936c0-14.201-4.26-27.369-11.688-36.128 c-3.581-4.223-7.721-7.111-11.97-8.353C183.138,247.556,181.462,247.313,179.792,247.313z"/>
    </g>
    <g id="XMLID_459_">
      <path id="XMLID_460_" style="fill: rgb(255, 255, 255);" d="M179.81,10c-11.533,0-84.62,62.685-84.62,125.87 c0,21.51,25.754,156.644,25.754,156.644c43.893,0,69.719,0,117.696,0c0,0,25.755-135.131,25.755-156.641 C264.395,72.334,190.643,10,179.81,10z M223.522,149.735c-0.892,4.359-2.419,8.486-4.48,12.281 c-0.687,1.265-1.434,2.493-2.236,3.68c-3.209,4.75-7.307,8.848-12.057,12.057c-1.187,0.802-2.415,1.549-3.68,2.236 c-3.795,2.062-7.922,3.589-12.281,4.481c-2.906,0.594-5.914,0.907-8.996,0.907c-24.652,0-44.637-19.985-44.637-44.637 s19.984-44.637,44.637-44.637c3.082,0,6.09,0.313,8.996,0.907c4.359,0.892,8.486,2.419,12.281,4.48 c1.897,1.031,3.712,2.195,5.43,3.48c4.01,2.999,7.499,6.656,10.307,10.812c4.813,7.124,7.623,15.712,7.623,24.957 C224.429,143.821,224.117,146.829,223.522,149.735z"/>
      <path id="XMLID_463_" style="fill: rgb(94, 66, 136);" d="M179.792,195.376c-30.127,0-54.637-24.51-54.637-54.637 s24.51-54.638,54.637-54.638c3.699,0,7.4,0.374,11.001,1.11c5.26,1.076,10.323,2.923,15.049,5.49 c2.308,1.254,4.543,2.687,6.646,4.259c4.926,3.684,9.166,8.133,12.604,13.224c6.108,9.042,9.337,19.607,9.337,30.555 c0,3.697-0.373,7.397-1.108,10.997c-1.078,5.264-2.925,10.326-5.49,15.051c-0.838,1.542-1.759,3.057-2.738,4.507 c-3.945,5.839-8.906,10.801-14.745,14.744c-1.443,0.976-2.959,1.896-4.502,2.736c-4.729,2.568-9.792,4.415-15.053,5.491 C187.193,195.002,183.492,195.376,179.792,195.376z M179.792,106.102c-19.099,0-34.637,15.538-34.637,34.638 c0,19.099,15.538,34.637,34.637,34.637c2.355,0,4.708-0.237,6.991-0.704c3.324-0.68,6.524-1.848,9.512-3.471 c0.978-0.531,1.939-1.115,2.854-1.734c3.712-2.507,6.864-5.659,9.371-9.369c0.622-0.922,1.206-1.883,1.736-2.858 c1.621-2.984,2.789-6.186,3.47-9.511c0.467-2.281,0.703-4.634,0.703-6.989c0-6.942-2.044-13.637-5.909-19.359 c-2.186-3.234-4.88-6.062-8.01-8.402c-1.334-0.997-2.753-1.906-4.217-2.702c-2.985-1.622-6.186-2.79-9.509-3.47 C184.5,106.339,182.148,106.102,179.792,106.102z"/>
    </g>
    <path id="XMLID_467_" style="fill: rgb(52, 28, 88);" d="M129.228,282.514h101.128c7.92-42.046,24.039-130.879,24.039-146.641 c0-55.3-61.037-108.785-74.631-115.474c-5.884,2.927-23.498,16.183-41.078,37.88c-21.601,26.658-33.496,54.215-33.496,77.591 C105.19,151.634,121.308,240.468,129.228,282.514z M246.915,302.514H112.669l-1.549-8.128 c-2.654-13.927-25.931-136.69-25.931-158.516c0-37.065,21.923-71.057,40.314-93.045C139.353,26.268,166.342,0,179.81,0 c13.191,0,40.127,26.174,54.007,42.672c18.512,22.004,40.578,56.034,40.578,93.201c0,21.825-23.277,144.587-25.932,158.513 L246.915,302.514z"/>
  </g>
</svg>